<svg width="512" height="512" xmlns="http://www.w3.org/2000/svg">

 <g>
  <title>background</title>
  <rect fill="none" id="canvas_background" height="402" width="582" y="-1" x="-1"/>
 </g>
 <g>
  <title>Layer 1</title>
  <path id="svg_33" d="m349.852,343.15c-49.876,49.916 -131.083,49.916 -181,0c-49.916,-49.917 -49.916,-131.125 0,-181.021c13.209,-13.187 29.312,-23.25 47.832,-29.812c5.834,-2.042 12.293,-0.562 16.625,3.792c4.376,4.375 5.855,10.833 3.793,16.625c-12.542,35.375 -4,73.666 22.249,99.917c26.209,26.228 64.501,34.75 99.917,22.25c5.792,-2.062 12.271,-0.583 16.625,3.792c4.376,4.333 5.834,10.812 3.771,16.625c-6.521,18.52 -16.604,34.623 -29.812,47.832zm-158.375,-158.396c-37.438,37.438 -37.438,98.354 0,135.771c40,40.021 108.125,36.417 143,-8.167c-35.959,2.25 -71.375,-10.729 -97.75,-37.084c-26.375,-26.354 -39.333,-61.771 -37.084,-97.729c-2.874,2.251 -5.604,4.647 -8.166,7.209z" fill="#1D1D1B"/>
 </g>
</svg>