<svg width="512" height="512" xmlns="http://www.w3.org/2000/svg">

 <g>
  <title>background</title>
  <rect fill="none" id="canvas_background" height="514" width="514" y="-1" x="-1"/>
 </g>
 <g>
  <title>Layer 1</title>
  <g id="svg_33">
   <g id="svg_34">
    <path id="svg_35" d="m400,64c-5.312,0 -10.562,0.375 -15.792,1.125c-29.874,-40.708 -77.02,-65.125 -128.208,-65.125c-51.188,0 -98.312,24.417 -128.208,65.125c-5.23,-0.75 -10.48,-1.125 -15.792,-1.125c-61.75,0 -112,50.25 -112,112s50.25,112 112,112c13.688,0 27.084,-2.5 39.709,-7.333c12.291,10.708 26.25,18.958 40.916,25.416l24.916,-24.874c-23.458,-7.626 -44.166,-21.271 -59.604,-39.876c-12.999,9.167 -28.812,14.667 -45.937,14.667c-44.188,0 -80,-35.812 -80,-80s35.812,-80 80,-80c10.812,0 21.062,2.208 30.438,6.083c21.229,-41.416 63.853,-70.083 113.562,-70.083s92.334,28.667 113.541,70.083c9.397,-3.875 19.668,-6.083 30.459,-6.083c44.188,0 80,35.812 80,80s-35.812,80 -80,80c-17.125,0 -32.916,-5.5 -45.938,-14.667c-10.375,12.521 -23.312,22.667 -37.625,30.584l-13.437,40.333c20.875,-6.562 40.5,-16.938 57.291,-31.583c12.625,4.833 26.021,7.333 39.709,7.333c61.75,0 112,-50.25 112,-112s-50.25,-112 -112,-112zm-208,288l32,32l-32,96l96,-96l-32,-32l32,-96l-96,96z" fill="#1D1D1B"/>
   </g>
  </g>
 </g>
</svg>